<?xml version="1.0" encoding="UTF-8" standalone="no"?>
<!DOCTYPE svg PUBLIC "-//W3C//DTD SVG 1.1//EN" "http://www.w3.org/Graphics/SVG/1.1/DTD/svg11.dtd">
<svg width="100%" height="100%" viewBox="0 0 48 48" version="1.1" xmlns="http://www.w3.org/2000/svg" xmlns:xlink="http://www.w3.org/1999/xlink" xml:space="preserve" xmlns:serif="http://www.serif.com/" style="fill-rule:evenodd;clip-rule:evenodd;stroke-linejoin:round;stroke-miterlimit:2;">
    <g transform="matrix(2,0,0,2,0,0)">
        <path d="M3,5C2.995,5 2.991,5 2.986,5C2.437,5 1.986,5.451 1.986,6C1.986,6.549 2.437,7 2.986,7C2.991,7 2.995,7 3,7L21,7C21.005,7 21.009,7 21.014,7C21.563,7 22.014,6.549 22.014,6C22.014,5.451 21.563,5 21.014,5C21.009,5 21.005,5 21,5L3,5ZM3,11C2.995,11 2.991,11 2.986,11C2.437,11 1.986,11.451 1.986,12C1.986,12.549 2.437,13 2.986,13C2.991,13 2.995,13 3,13L21,13C21.005,13 21.009,13 21.014,13C21.563,13 22.014,12.549 22.014,12C22.014,11.451 21.563,11 21.014,11C21.009,11 21.005,11 21,11L3,11ZM3,17C2.995,17 2.991,17 2.986,17C2.437,17 1.986,17.451 1.986,18C1.986,18.549 2.437,19 2.986,19C2.991,19 2.995,19 3,19L21,19C21.005,19 21.009,19 21.014,19C21.563,19 22.014,18.549 22.014,18C22.014,17.451 21.563,17 21.014,17C21.009,17 21.005,17 21,17L3,17Z" style="fill:rgb(52,152,219);fill-rule:nonzero;"/>
    </g>
</svg>
